<svg width="241" height="277" viewBox="0 0 241 277" fill="none" xmlns="http://www.w3.org/2000/svg">
<g clip-path="url(#clip0_595_4)">
<path d="M54.65 23.85C58.91 8.46999 69.97 0.0199875 85.74 0.00998752C108.07 -0.0100125 130.41 0.00998752 152.74 0.00998752C170.33 0.00998752 180.4 7.25999 185.78 23.86C203.92 24.47 218.89 31.51 229.83 46.3C236.55 55.38 240.15 65.67 240.17 76.95C240.28 125.78 240.29 174.61 240.18 223.43C240.12 248.78 220.44 271.37 195.39 275.16C191.47 275.75 187.47 276.14 183.51 276.14C140.68 276.21 97.84 276.2 55.01 276.17C29.28 276.15 8.44998 260.27 1.84998 235.44C0.709977 231.16 0.119977 226.61 0.109977 222.18C-0.0200233 174.2 -0.0200233 126.2 0.0399767 78.21C0.0699767 48.58 23.04 25.08 52.8 24.07C53.29 24.05 53.78 23.96 54.65 23.85ZM186.2 36.3C186.2 38.38 186.22 40.18 186.2 41.99C186.03 58.86 172.91 72.01 156.05 72.05C131.89 72.11 107.73 72.11 83.57 72.05C69.96 72.01 57.98 62.44 55.12 49.23C54.22 45.07 54.05 40.75 53.5 36.13C52.43 36.13 51.29 36.03 50.17 36.14C29.13 38.29 12.3 55.91 12.2 76.89C11.96 125.71 11.94 174.52 12.2 223.34C12.32 245.34 30.71 263.85 52.71 264.01C97.7 264.33 142.69 264.34 187.68 264C209.48 263.83 227.87 245.51 228.02 223.71C228.36 174.56 228.4 125.41 228 76.26C227.82 54.21 207.87 35.42 186.21 36.32L186.2 36.3ZM119.76 60.08C131.75 60.08 143.74 60.14 155.73 60.06C166.01 59.99 173.71 52.53 174.09 42.3C174.24 38.14 174.24 33.97 174.09 29.81C173.72 19.74 166.31 12.19 156.2 12.13C132.06 11.97 107.91 11.95 83.76 12.15C73.91 12.23 66.58 19.78 66.16 29.6C66 33.42 66.08 37.26 66.12 41.09C66.27 52.52 73.85 60.04 85.29 60.07C96.78 60.1 108.27 60.07 119.76 60.07V60.08Z" fill="black"/>
<path d="M113.85 177.73C128.48 163.13 142.33 149.18 156.38 135.44C158.09 133.77 160.88 132.49 163.2 132.43C164.74 132.39 167.49 134.75 167.64 136.24C167.86 138.51 166.94 141.58 165.37 143.22C155.69 153.32 145.69 163.13 135.8 173.02C130.38 178.44 124.98 183.88 119.51 189.25C115.48 193.2 112.85 193.26 108.85 189.32C101.36 181.97 93.99 174.5 86.55 167.09C83.64 164.19 82.87 160.91 85.92 157.89C88.96 154.86 92.25 155.64 95.12 158.58C101.27 164.87 107.42 171.16 113.85 177.74V177.73Z" fill="black"/>
<path d="M120.04 30.0599C129.53 30.0599 139.01 30.0299 148.5 30.0699C153.46 30.0899 156.07 32.1899 156.11 35.9899C156.15 39.7699 153.44 42.0999 148.66 42.1099C129.69 42.1499 110.71 42.1499 91.74 42.1099C86.89 42.1099 84.19 39.8999 84.13 36.1499C84.07 32.3199 86.69 30.0999 91.58 30.0699C101.07 30.0199 110.55 30.0499 120.04 30.0499V30.0599Z" fill="black"/>
</g>
<defs>
<clipPath id="clip0_595_4">
<rect width="240.25" height="276.2" fill="white"/>
</clipPath>
</defs>
</svg>
